# xmcd CD database file
#
# Track frame offsets:
#	150
#	19680
#	45513
#	74245
#	102377
#	133219
#	154917
#	194754
#	219886
#	260291
#	284481
#
# Disc length: 4270 seconds
#
# Revision: 0
# Processed by: cddbd v1.5.1PL0 Copyright (c) Steve Scherf et al.
# Submitted via: CDex 1.51
#
DISCID=ac10ac0b
DTITLE=IL GRANDE ROCK - CD_41 - Jazz-Rock Drive
DYEAR=2001
DGENRE=Jazz
TTITLE0=Billy Cobham - Quadrant 4
TTITLE1=Mahavishnu Orchestra - Birds of Fire
TTITLE2=Colosseum II - Dark side of the moog
TTITLE3=Miles Davis - You're under arrest
TTITLE4=Weather Report - A remark you made
TTITLE5=Soft Machine - Nettle bed
TTITLE6=National Health - Dreams wide awake
TTITLE7=Steve Morse Band - Cruise missile
TTITLE8=Al Di Meola - Alien chase on arabian desert
TTITLE9=Jaco Pastorius - Crisis
TTITLE10=Frank Zappa - Blessed relief
EXTD=YEAR: 2001
EXTT0=
EXTT1=
EXTT2=
EXTT3=
EXTT4=
EXTT5=
EXTT6=
EXTT7=
EXTT8=
EXTT9=
EXTT10=
PLAYORDER=
